<svg xmlns="http://www.w3.org/2000/svg" xmlns:xlink="http://www.w3.org/1999/xlink" version="1.1" x="0px" y="0px" viewBox="0 0 100 125" enable-background="new 0 0 100 100" xml:space="preserve">
    <path d="M93.5,14.3H6.7c-2.7,0-4.8,2.2-4.8,4.8v9.6c0,2.7,2.2,4.8,4.8,4.8h13.2L11,70.1c-2.8,10.4,2.4,18,13.6,18h51.1  c11.2,0,16.4-7.2,13.6-18L80,33.6h13.5c2.7,0,4.8-2.2,4.8-4.8v-9.6C98.3,16.5,96.1,14.3,93.5,14.3z M60.3,24.2h9.3l2.3,9.4l9.6,38.9  c0.8,2.8,0.8,4.8-0.4,6c-0.8,1.2-2.8,1.6-5.6,1.6H24.5c-1.6,0-4.4-0.4-5.6-1.6c-0.8-1.2-1.2-3.6-0.4-6.4l9.6-38.5l2.3-9.4h9.3" />
    <polygon fill="#000000" points="73.3,85.8 53.3,85.8 53.3,22.7 62.8,22.7 " />
</svg>
