<svg xmlns="http://www.w3.org/2000/svg" xmlns:xlink="http://www.w3.org/1999/xlink" version="1.1" x="0px" y="0px" viewBox="0 0 71.448 124.48625" enable-background="new 0 0 71.448 99.589" xml:space="preserve">
    <g>
        <path d="M69.556,15.594c-0.64,0.568-1.688,1.834-3.245,3.783c-2.286,2.876-5.393,7.004-8.091,10.939   c-2.701,3.97-4.963,7.573-5.678,9.975c-1.146,4.057-3.653,14.973-6.934,22.288c-1.263-0.371-3.029-0.755-5.026-0.761   c-0.128,0-0.242,0.002-0.343,0.006l0.081,2.911c0.102-0.003,0.189-0.007,0.262-0.007c1.537,0,3.004,0.299,4.071,0.603   c0.535,0.153,0.969,0.302,1.263,0.412c0.294,0.113,0.423,0.174,0.425,0.172l0.097,0.044c0.041,0.029,0.124,0.094,0.256,0.228   c0.206,0.212,0.517,0.583,0.896,1.206c0.389,0.596,0.56,1.729,0.548,2.611c0,0.101-0.004,0.188-0.006,0.278   c-0.485,0.091-1.071,0.184-1.661,0.234c-1.46,0.127-1.46,0.127-1.46,0.127l-0.325,0.027l-1.953,2.622l1.167,0.87l1.562-2.097   c0.211-0.018,0.559-0.049,1.136-0.098c0.085-0.008,0.168-0.018,0.254-0.027c-0.12,0.105-0.239,0.208-0.372,0.32   c-1.238,1.055-2.961,2.387-4.837,3.475c-2.381,1.411-4.266,3.96-5.916,6.172c-0.815,1.104-1.554,2.13-2.163,2.85   c-0.299,0.36-0.57,0.642-0.762,0.805c-0.087,0.075-0.157,0.124-0.195,0.146c-0.02,0.002-0.047,0.004-0.082,0.004   c-0.515,0.032-1.966-0.481-3.083-1.064c-0.391-0.195-0.749-0.389-1.055-0.562c0.809-1.587,1.58-3.14,2.304-4.589   c1.752-3.535,3.283-6.527,4.221-7.739c0.985-1.297,2.459-2.674,3.671-3.69c1.211-1.021,2.143-1.681,2.145-1.683L39.04,64.01   c-0.053,0.049-4.021,2.828-6.445,5.983c-1.264,1.675-2.727,4.636-4.513,8.206c-1.769,3.554-3.797,7.656-5.951,11.347   c-1.927,3.391-7.406,7.187-12.706,7.13c-0.51,0-1.016-0.03-1.516-0.097c-1.652-0.228-2.536-0.771-3.042-1.328   c-0.501-0.561-0.695-1.214-0.7-1.881c-0.002-0.436,0.093-0.863,0.229-1.176c0.125-0.314,0.306-0.49,0.31-0.487   c0.781-0.538,2.103-1.396,3.564-3.165c1.471-1.777,3.138-4.467,4.982-8.835c1.879-4.472,2.381-9.634,2.387-14.131   c-0.002-6.14-0.968-11.046-0.979-11.103l-2.855,0.56c0,0.002,0.226,1.147,0.457,3.061c0.158,1.305,0.315,2.956,0.398,4.797   c-1.95-2.699-4.482-5.178-4.5-5.227l-1.028,1.029c0.042,0.042,1.408,1.416,2.868,3.163c1.022,1.21,2.069,2.631,2.726,3.823   c-0.002,2.49-0.188,5.166-0.667,7.733c-0.997-1.247-2.149-2.689-2.932-3.669c-0.219-0.252-0.723-1.219-1.182-2.368   c-1.438-3.505-3.01-8.989-3.016-8.998l-0.066-0.231L4.729,57.95c0,0-0.034-0.045-0.133-0.21c-0.293-0.497-1.003-1.824-1.517-3.818   c-0.118-0.456-0.169-0.827-0.169-1.132c0.023-0.651,0.15-1.02,0.749-1.676c0.603-0.637,1.743-1.415,3.495-2.332   c2.597-1.399,6.763-5.241,10.955-9.285c4.15-4.025,8.155-8.183,9.84-9.92c1.134-1.207,2.271-3.383,3.652-6.239   c4.047-8.484,9.188-22.301,9.196-22.321l-2.728-1.015V0c-0.004,0.014-2.283,6.126-4.981,12.677   c-1.349,3.275-2.803,6.655-4.117,9.408c-1.285,2.73-2.556,4.929-3.112,5.464c-1.691,1.742-5.675,5.875-9.78,9.858   c-4.065,3.965-8.422,7.849-10.282,8.797c-1.869,0.988-3.238,1.858-4.24,2.894C0.552,50.113-0.022,51.44,0,52.79   c0,0.617,0.097,1.23,0.261,1.859c0.65,2.529,1.577,4.171,1.931,4.741c0.189,0.651,0.806,2.738,1.57,5.016   c0.459,1.374,0.973,2.815,1.487,4.074c0.529,1.268,0.998,2.303,1.603,3.082c1.204,1.507,3.279,4.104,4.317,5.401   c-0.182,0.552-0.379,1.091-0.599,1.611c-1.768,4.185-3.309,6.619-4.544,8.107c-1.248,1.493-2.136,2.044-2.976,2.628   c-1.234,0.927-1.753,2.389-1.796,4.061c-0.003,1.256,0.404,2.674,1.452,3.832c1.045,1.161,2.665,1.979,4.816,2.264   c0.641,0.084,1.276,0.123,1.902,0.123c6.616-0.057,12.623-4.218,15.221-8.575c0.825-1.416,1.627-2.879,2.399-4.341   c0.323,0.181,0.69,0.378,1.093,0.579c1.316,0.634,2.817,1.338,4.385,1.372c0.23-0.002,0.472-0.018,0.726-0.072   c1.231-0.338,1.781-1.082,2.542-1.92c2.079-2.534,4.87-7.023,7.313-8.378c4.176-2.433,7.378-5.712,7.43-5.757l0.324-0.335   l0.075-0.457c0.008-0.052,0.115-0.74,0.115-1.702c-0.009-0.868-0.073-1.965-0.473-3.065c1.601-1.609,5.444-5.475,6.498-6.519   c1.355-1.343,1.354-1.343,1.355-1.343l0.548-0.545l-0.143-0.758c-0.009-0.041-0.243-1.295-0.73-2.744   c-0.062-0.167-0.126-0.337-0.19-0.509c0.606-0.445,1.516-1.23,1.62-2.8c0-0.062-0.002-0.136-0.009-0.223   c-0.062-0.712-0.24-2.034-0.629-3.422c-0.422-1.376-0.904-2.842-2.241-3.842c-0.752-0.527-1.378-0.842-1.885-1.03   c0.218-0.829,0.41-1.551,0.573-2.116c0.56-2.13,4.307-7.935,8.02-13.006c1.862-2.564,3.731-5.013,5.227-6.894   c1.461-1.853,2.697-3.266,2.856-3.38L69.556,15.594z M54.143,45.743L54.143,45.743l-0.002,0.001   C54.141,45.744,54.142,45.743,54.143,45.743z M54.888,57.285c-1.461,0.125-1.461,0.125-1.461,0.125l-0.35,0.029l-1.528,2.312   l1.215,0.804l1.138-1.723c0.155-0.013,0.382-0.033,0.704-0.061c-1.282,1.278-4.02,4.029-5.606,5.626   c-0.255-0.286-0.492-0.511-0.71-0.681c1.509-3.383,2.827-7.37,3.931-11.123c0.431,0.146,1.011,0.384,1.729,0.808   c0.24,0.046,1.029,1.327,1.397,2.562c0.139,0.412,0.246,0.791,0.339,1.142C55.493,57.182,55.235,57.251,54.888,57.285z    M54.991,46.624c0.231,0.093,0.82,1.107,1.105,2.243c0.317,1.117,0.481,2.327,0.526,2.855l0,0l-0.009,0.006   c-0.012,0.035-0.048,0.088-0.098,0.146c-0.301-0.362-0.651-0.696-1.083-0.979c-0.96-0.569-1.786-0.904-2.412-1.108   c0.367-1.325,0.703-2.579,1.006-3.736C54.267,46.165,54.579,46.334,54.991,46.624z M7.132,58.694L7.132,58.694   C7.132,58.694,7.132,58.693,7.132,58.694L7.132,58.694z M8.199,92.514c-0.868-0.606-1.739-0.782-2.396-0.778   c-0.745,0-1.233,0.206-1.294,0.232l0.581,1.336c0,0,0.029-0.017,0.158-0.049c0.127-0.03,0.32-0.064,0.555-0.064   c0.417,0.002,0.955,0.097,1.563,0.518c0.756,0.528,1.259,0.953,1.566,1.237c0.308,0.283,0.393,0.403,0.396,0.399l0.394,0.493   l6.612-3.895l-0.489-0.65c-0.062-0.032-1.354-1.925-3.016-2.483l-0.421,1.395c0.401,0.107,1.03,0.597,1.489,1.069   c0.091,0.093,0.176,0.182,0.255,0.267l-4.126,2.432C9.672,93.637,9.09,93.135,8.199,92.514z M16.938,79.66   c1.875-0.135,4.852,3.006,5.062,3.693l1.333-0.587c-0.647-1.262-3.327-4.428-6.395-4.563c-1.159-0.019-2.336,0.623-3.092,1.938   c-0.142,0.229-0.205,0.503-0.205,0.755c0.036,0.921,0.635,1.601,1.378,2.177c0.76,0.561,1.749,0.978,2.816,0.983h0.018   c0.806,0,1.666-0.273,2.362-0.921l0.328-0.304l-0.119-0.427c-0.405-1.475-1.75-2.244-3.015-2.229c-0.666,0-1.339,0.197-1.903,0.611   l0.866,1.174c0.289-0.216,0.662-0.33,1.037-0.33c0.584,0.011,1.113,0.246,1.417,0.725c-0.31,0.171-0.638,0.242-0.992,0.245   c-0.664,0.004-1.408-0.292-1.949-0.696c-0.556-0.39-0.825-0.926-0.789-1.008h-0.006C15.699,79.911,16.262,79.679,16.938,79.66z" />
    </g>
</svg>
