<svg xmlns="http://www.w3.org/2000/svg" xmlns:xlink="http://www.w3.org/1999/xlink" version="1.1" viewBox="0 0 32 40" x="0px" y="0px">
    <path d="M7.040 20.8h-0.054c-0.677 0-1.226-0.548-1.226-1.224v-1.016h1.28v2.24zM9.6 20.8h-2.24v-2.24h2.24v2.24zM12.48 18.56v1.016c0 0.676-0.549 1.224-1.226 1.224h-1.334v-2.24h2.56zM9.92 15.68h1.334c0.677 0 1.226 0.52 1.226 1.195v1.365h-2.56v-2.56zM7.36 15.68h2.24v2.56h-2.24v-2.56zM6.986 15.68h0.054v2.56h-1.28v-1.336c0-0.676 0.549-1.224 1.226-1.224zM1.6 12.16v10.409c0 2.027 1.646 3.671 3.677 3.671h21.447c2.031 0 3.677-1.643 3.677-3.671v-10.409h-28.8zM5.277 5.44c-2.031 0-3.677 1.643-3.677 3.671v1.449h28.8v-1.449c0-2.027-1.646-3.671-3.677-3.671h-21.447z" fill="#000000" />
</svg>
